<svg xmlns="http://www.w3.org/2000/svg" width="15.28" height="17.625" viewBox="0 0 15.28 17.625">
  <defs>
    <style>
      .cls-1 {
        fill: #fff;
        fill-rule: evenodd;
      }
    </style>
  </defs>
  <path id="ico_add" class="cls-1" d="M1149.61,762.662a2.727,2.727,0,0,1-2.38-2.484,3.905,3.905,0,0,0,.84-1.484,0.406,0.406,0,0,0,.19.01,1.68,1.68,0,0,0,.91-1.3,0.719,0.719,0,0,0-.52-0.958c0.28-.433.56-4.576-3.45-4.576-4.21,0-3.73,4.143-3.45,4.576a0.719,0.719,0,0,0-.52.958,1.68,1.68,0,0,0,.91,1.3,0.406,0.406,0,0,0,.19-0.01,3.832,3.832,0,0,0,.86,1.5,2.73,2.73,0,0,1-2.38,2.469c-3.03.275-3.2,4.447-3,4.961,0.19,0.491,1.65,1.386,7.4,1.386,5.89,0,7.21-.895,7.4-1.386C1152.8,767.109,1152.64,762.937,1149.61,762.662Zm-2.15-1.132h4.78V768.7h-4.78V761.53Zm6.37,2.389V767.9h-8.75v-3.982h8.75Zm-5.57-1.593h2.39v7.167h-2.39v-7.167Zm4.78,2.389V767.1h-7.17v-2.389h7.17Z" transform="translate(-1137.75 -751.875)"/>
</svg>
