<svg xmlns="http://www.w3.org/2000/svg" width="14.906" height="14.75" viewBox="0 0 14.906 14.75">
  <defs>
    <style>
      .cls-1 {
        fill: #898a8a;
        fill-rule: evenodd;
      }
    </style>
  </defs>
  <path id="search" class="cls-1" d="M928.271,240.227a0.5,0.5,0,0,0,0,.7l0.7,0.7a0.5,0.5,0,0,0,.7,0l3.511-3.324a0.49,0.49,0,0,0,.113-0.185,6.134,6.134,0,1,0-1.337-1.337,0.491,0.491,0,0,0-.184.113Zm8.635-11.119a4.08,4.08,0,1,1-4.08,4.079A4.079,4.079,0,0,1,936.906,229.108Z" transform="translate(-928.125 -227.063)"/>
</svg>
