<svg xmlns="http://www.w3.org/2000/svg" width="16.6" height="16.594" viewBox="0 0 16.6 16.594">
  <defs>
    <style>
      .cls-1 {
        fill: #fff;
        fill-rule: evenodd;
        opacity: 0.5;
      }
    </style>
  </defs>
  <path id="ico_wink" class="cls-1" d="M1125.49,757.547c-1.14,0-2.07,1.86-2.07.715a2.075,2.075,0,0,1,4.15,0C1127.57,759.407,1126.64,757.547,1125.49,757.547Zm-6.22,2.789a2.074,2.074,0,1,1,2.07-2.074A2.068,2.068,0,0,1,1119.27,760.336Zm0-3.111a1.037,1.037,0,1,0,1.04,1.037A1.041,1.041,0,0,0,1119.27,757.225Zm3.11,9.333a5.3,5.3,0,0,1-4.75-3.242h9.5A5.3,5.3,0,0,1,1122.38,766.558Zm0-14.519a8.3,8.3,0,1,1-8.3,8.3A8.3,8.3,0,0,1,1122.38,752.039Z" transform="translate(-1114.09 -752.031)"/>
</svg>
